# xmcd CD database file
#
# Track frame offsets:
#	150
#	10342
#	22902
#	34422
#	48727
#	62075
#	72292
#	84935
#	96442
#	110715
#
# Disc length: 1655 seconds
#
# Revision: 0
# Processed by: cddbd v1.5.1PL2 Copyright (c) Steve Scherf et al.
# Submitted via: CDex 1.51
#
DISCID=8506750a
DTITLE=Patsy Cline - Sing Like Patsy Cline Vol. 1
DYEAR=1900
DGENRE=Country
TTITLE0=Walkin' After Midnight
TTITLE1=Crazy
TTITLE2=Leavin' On Your Mind
TTITLE3=She's Got You
TTITLE4=I Fall To Pieces
TTITLE5=Guide Vocals Walkin' After Midnight
TTITLE6=Guide Vocals Crazy
TTITLE7=Guide Vocals Leavin' On Your Mind
TTITLE8=Guide Vocals She's Got You
TTITLE9=Guide Vocals I Fall To Pieces
EXTD=
EXTT0=
EXTT1=
EXTT2=
EXTT3=
EXTT4=
EXTT5=
EXTT6=
EXTT7=
EXTT8=
EXTT9=
PLAYORDER=
